<?xml version="1.0" standalone="no"?><!DOCTYPE svg PUBLIC "-//W3C//DTD SVG 1.1//EN" "http://www.w3.org/Graphics/SVG/1.1/DTD/svg11.dtd"><svg t="1550565732069" class="icon" style="" viewBox="0 0 1024 1024" version="1.1" xmlns="http://www.w3.org/2000/svg" p-id="1823" xmlns:xlink="http://www.w3.org/1999/xlink" width="200" height="200"><defs><style type="text/css"></style></defs><path d="M709.376 788.896a25.44 25.44 0 1 0 50.88 0 25.44 25.44 0 0 0-50.88 0m100.48 0a25.44 25.44 0 1 0 50.88 0 25.44 25.44 0 0 0-50.88 0m3.264-102.432a25.44 25.44 0 1 0 50.88 0 25.44 25.44 0 0 0-50.88 0m-63.968-192.48H609.536a23.136 23.136 0 0 1-22.848-22.848c0-12.384 10.432-22.848 22.848-22.848h139.616c12.384 0 22.848 10.432 22.848 22.848a22.72 22.72 0 0 1-22.848 22.848z m-45.664 97.856h-93.952c-12.384 0-22.848-10.432-22.848-22.848s10.432-22.848 22.848-22.848h93.952c12.384 0 22.848 10.432 22.848 22.848s-9.792 22.848-22.848 22.848z" fill="#ffffff" p-id="1824"></path><path d="M649.984 813.024H235.04a75.456 75.456 0 0 1-75.04-75.04V271.488a75.456 75.456 0 0 1 75.04-75.04h37.184c10.432 0 20.224 7.168 22.176 17.6a34.912 34.912 0 0 0 67.84 0 22.944 22.944 0 0 1 22.176-17.6h78.304c10.432 0 20.224 7.168 22.176 17.6a34.912 34.912 0 0 0 67.84 0 22.944 22.944 0 0 1 22.176-17.6h71.776c10.432 0 20.224 7.168 22.176 17.6a34.88 34.88 0 0 0 67.84 0 22.944 22.944 0 0 1 22.176-17.6h28.064a75.456 75.456 0 0 1 75.04 75.04v322.304a23.136 23.136 0 0 1-22.848 22.848 23.136 23.136 0 0 1-22.848-22.848V271.488a29.216 29.216 0 0 0-29.376-29.344h-12.384c-13.056 26.752-40.448 45.024-71.776 45.024s-58.72-17.6-71.776-45.024h-39.808c-13.056 26.752-40.448 45.024-71.776 45.024s-58.72-17.6-71.776-45.024H401.28c-13.056 26.752-40.448 45.024-71.776 45.024s-58.72-17.6-71.776-45.024h-21.376a29.216 29.216 0 0 0-29.344 29.344v466.496c0 16.32 13.056 29.344 29.344 29.344h414.976c12.384 0 22.848 10.432 22.848 22.848-0.032 12.416-11.776 22.848-24.192 22.848z" fill="#ffffff" p-id="1825"></path><path d="M384 506.624v46.24h82.08a16.544 16.544 0 0 1 0 33.088H384v51.872a16.544 16.544 0 0 1-33.152 0v-51.872h-82.08a16.512 16.512 0 1 1 0-33.088h82.08v-46.24h-82.08a16.512 16.512 0 1 1 0-33.088h76.384l-87.2-74.944a16.512 16.512 0 0 1 21.632-24.928l87.872 75.52 87.84-75.52a16.512 16.512 0 0 1 21.632 24.928l-87.2 74.944h76.384a16.544 16.544 0 0 1 0 33.088H384z" fill="#ffffff" p-id="1826"></path></svg>