<?xml version="1.0" standalone="no"?><!DOCTYPE svg PUBLIC "-//W3C//DTD SVG 1.1//EN" "http://www.w3.org/Graphics/SVG/1.1/DTD/svg11.dtd"><svg t="1550565759375" class="icon" style="" viewBox="0 0 1024 1024" version="1.1" xmlns="http://www.w3.org/2000/svg" p-id="1944" xmlns:xlink="http://www.w3.org/1999/xlink" width="200" height="200"><defs><style type="text/css"></style></defs><path d="M969.182704 487.866579l-237.075932-251.382073c-0.070332-0.073529-0.147058-0.137467-0.21739-0.210996-0.271737-0.281327-0.559458-0.543474-0.847179-0.808816-0.236571-0.220586-0.469945-0.44437-0.716106-0.648972-0.271737-0.230177-0.559458-0.441173-0.843983-0.658562-0.278131-0.210996-0.549867-0.428385-0.837588-0.626593-0.271737-0.188617-0.559458-0.354856-0.840786-0.530686-0.3101-0.191814-0.613805-0.390022-0.930299-0.565851-0.294115-0.163042-0.597821-0.300509-0.901526-0.450764-0.316493-0.156648-0.62979-0.31969-0.955874-0.460354-0.326084-0.140664-0.664956-0.258949-1.000631-0.383628-0.3101-0.115089-0.617002-0.239768-0.933496-0.342069-0.345266-0.111892-0.703319-0.198208-1.054978-0.290918-0.31969-0.083119-0.636184-0.17583-0.95907-0.246162-0.335675-0.073529-0.677743-0.121482-1.019813-0.179026-0.358053-0.057544-0.712909-0.121482-1.070962-0.163042-0.3101-0.035166-0.626593-0.05115-0.93989-0.073529a21.495976 21.495976 0 0 0-1.198838-0.060741c-0.099104 0-0.191814-0.015985-0.290918-0.015985H28.311773a21.380887 21.380887 0 0 0-21.380887 21.380888v444.216065a21.380887 21.380887 0 0 0 16.863663 20.894958 21.272193 21.272193 0 0 0 11.774194 3.542169h858.144672c70.74107 0 128.28852-57.550648 128.288521-128.288521 0-42.541188-20.834217-80.293416-52.819232-103.646792z m-201.676626-24.638531h-140.507083v-119.126197h143.563323c1.336305 0 2.637445-0.137467 3.906615-0.374037l112.700422 119.500234h-119.663277z m126.207337 213.815266H49.69266V272.535981h657.63172l27.164084 28.800899h-128.870357a21.380887 21.380887 0 0 0-21.380887 21.380887v161.887971a21.380887 21.380887 0 0 0 21.380887 21.380887h288.095308a85.028029 85.028029 0 0 1 47.253423 14.283763l0.364447 0.386825a21.268996 21.268996 0 0 0 6.476926 4.667479c19.171827 15.696794 31.43195 39.536099 31.43195 66.188679 0 47.16391-38.36923 85.529943-85.526746 85.529943z" fill="#ffffff" p-id="1945"></path><path d="M278.782729 301.340077h-161.891168a21.380887 21.380887 0 0 0-21.380887 21.380887v161.887971a21.380887 21.380887 0 0 0 21.380887 21.380887h161.887971a21.380887 21.380887 0 0 0 21.380888-21.380887v-161.887971a21.374493 21.374493 0 0 0-21.377691-21.380887z m-21.384084 161.887971H138.272449v-119.126197h119.126196v119.126197zM523.144404 301.340077H361.253236a21.380887 21.380887 0 0 0-21.380887 21.380887v161.887971a21.380887 21.380887 0 0 0 21.380887 21.380887h161.887971a21.380887 21.380887 0 0 0 21.380887-21.380887v-161.887971a21.374493 21.374493 0 0 0-21.37769-21.380887z m-21.384084 161.887971h-119.126197v-119.126197h119.126197v119.126197zM878.438613 756.463976H21.384084a21.380887 21.380887 0 1 0 0 42.761774h857.054529a21.380887 21.380887 0 1 0 0-42.761774z" fill="#ffffff" p-id="1946"></path></svg>