<?xml version="1.0" standalone="no"?><!DOCTYPE svg PUBLIC "-//W3C//DTD SVG 1.1//EN" "http://www.w3.org/Graphics/SVG/1.1/DTD/svg11.dtd"><svg t="1545124125295" class="icon" style="" viewBox="0 0 1024 1024" version="1.1" xmlns="http://www.w3.org/2000/svg" p-id="1034" xmlns:xlink="http://www.w3.org/1999/xlink" width="200" height="200"><defs><style type="text/css"></style></defs><path d="M762.15573333 704.528a316.26666667 316.26666667 0 0 0 48.0416-89.05386667c11.50186667-33.2448 17.33013333-67.98826667 17.33013334-103.4752 0-81.80693333-31.15306667-159.43253333-87.71093334-218.4544-56.40533333-58.94933333-132.16213333-93.4656-213.44746666-97.20106666-5.3056-0.22186667-10.60693333-0.37226667-15.84-0.37226667-44.52906667 0-87.33866667 8.66773333-127.31093334 25.85066667-38.47466667 16.58666667-72.69333333 40.26986667-101.53173333 70.52693333-59.54666667 62.31146667-90.0256 145.61386667-85.91786667 234.51733333 3.81226667 81.2864 38.3264 157.04426667 97.20106667 213.45173334 59.09333333 56.55573333 136.72 87.712 218.5312 87.712H814.67733333l-54.3872-99.36853334c-4.25706667-7.69386667-3.51253333-17.1808 1.8656-24.13333333zM653.86666667 644.26666667H370.13333333v-32h283.73333334v32z m0-116.26666667H370.13333333v-32h283.73333334v32z m0-124.8H370.13333333v-32h283.73333334v32z" fill="#5fb1ff" p-id="1035"></path></svg>