<?xml version="1.0" standalone="no"?><!DOCTYPE svg PUBLIC "-//W3C//DTD SVG 1.1//EN" "http://www.w3.org/Graphics/SVG/1.1/DTD/svg11.dtd"><svg t="1545103021013" class="icon" style="" viewBox="0 0 1024 1024" version="1.1" xmlns="http://www.w3.org/2000/svg" p-id="1119" xmlns:xlink="http://www.w3.org/1999/xlink" width="200" height="200"><defs><style type="text/css"></style></defs><path d="M-664.554667 249.408" fill="#454545" p-id="1120"></path><path d="M-664.554667 249.408" fill="#454545" p-id="1121"></path><path d="M420.053333 420.053333c-90.944 90.944-120.213333 304.149333-120.213333 304.149333s213.162667-29.269333 304.149333-120.213333c90.986667-90.944 120.213333-304.149333 120.213333-304.149333S510.997333 329.109333 420.053333 420.053333zM534.378667 574.549333c-46.976 0-85.056-38.08-85.056-85.056 0-30.805333 16.533333-57.514667 41.024-72.448 1.152-0.96 4.394667-3.264 13.952-8.405333 1.365333-0.725333 2.730667-1.450667 4.096-2.176 52.693333-27.776 116.245333-49.258667 173.717333-64.725333-17.130667 63.701333-41.834667 135.210667-74.176 190.869333-0.149333-0.149333-0.256-0.256-0.405333-0.405333C592.789333 557.418667 565.717333 574.549333 534.378667 574.549333z" fill="#454545" p-id="1122"></path><path d="M512.021333 64C264.554667 64 64 264.554667 64 511.978667 64 759.445333 264.554667 960 512.021333 960 759.381333 960 960 759.445333 960 511.978667 960 264.512 759.381333 64 512.021333 64zM511.978667 917.312c-223.829333 0-405.333333-181.44-405.333333-405.333333 0-223.829333 181.44-405.333333 405.333333-405.333333 223.850667 0 405.397333 181.44 405.397333 405.333333C917.354667 735.808 735.808 917.312 511.978667 917.312z" fill="#454545" p-id="1123"></path></svg>