<?xml version="1.0" standalone="no"?><!DOCTYPE svg PUBLIC "-//W3C//DTD SVG 1.1//EN" "http://www.w3.org/Graphics/SVG/1.1/DTD/svg11.dtd"><svg t="1545124130479" class="icon" style="" viewBox="0 0 1024 1024" version="1.1" xmlns="http://www.w3.org/2000/svg" p-id="1164" xmlns:xlink="http://www.w3.org/1999/xlink" width="200" height="200"><defs><style type="text/css"></style></defs><path d="M842.989825 240.029229c20.91325 0 37.927007 17.013757 37.927007 37.925791v468.902455c0 20.912034-17.013757 37.925791-37.927007 37.925791H181.011391c-20.912034 0-37.925791-17.013757-37.925791-37.925791V277.95502c0-20.912034 17.013757-37.925791 37.925791-37.925791h661.978434m0-44.821057H181.011391c-45.70045 0-82.746848 37.047614-82.746848 82.746848v468.902455c0 45.70045 37.046398 82.746848 82.746848 82.746849h661.979651c45.70045 0 82.748064-37.047614 82.748064-82.746849V277.95502c-0.001216-45.699234-37.048831-82.746848-82.749281-82.746848z" fill="#ffffff" p-id="1165"></path><path d="M855.930157 237.788785L536.412576 557.306365c-7.164071 7.162855-16.687786 11.108568-26.818439 11.108568-10.130654 0-19.654368-3.944496-26.818439-11.108568L163.259333 237.788785H142.226885v42.354379l308.856615 308.856615c16.157474 16.157474 37.334664 24.236211 58.510637 24.236211s42.354379-8.078737 58.510637-24.236211l313.637933-313.637934V237.788785h-25.81255z" fill="#ffffff" p-id="1166"></path></svg>