<?xml version="1.0" standalone="no"?><!DOCTYPE svg PUBLIC "-//W3C//DTD SVG 1.1//EN" "http://www.w3.org/Graphics/SVG/1.1/DTD/svg11.dtd"><svg t="1550480509523" class="icon" style="" viewBox="0 0 1024 1024" version="1.1" xmlns="http://www.w3.org/2000/svg" p-id="1580" xmlns:xlink="http://www.w3.org/1999/xlink" width="200" height="200"><defs><style type="text/css"></style></defs><path d="M1009.856 942.4l-190.4-187.2c160-180.8 148.8-454.4-24-620.8-182.4-179.2-475.2-179.2-659.2 0-177.6 172.8-182.4 457.6-9.6 635.2l9.6 9.6c166.4 160 425.6 177.6 611.2 40l192 188.8c8 9.6 20.8 14.4 33.6 16 12.8 0 25.6-4.8 35.2-14.4 19.2-17.6 20.8-48 1.6-67.2z m-912-486.4c3.2-200 168-360 369.6-358.4 200-1.6 363.2 158.4 368 358.4-3.2 200-168 360-368 358.4-201.6 3.2-366.4-156.8-369.6-358.4z" fill="#5f5f61" p-id="1581"></path></svg>