<?xml version="1.0" standalone="no"?><!DOCTYPE svg PUBLIC "-//W3C//DTD SVG 1.1//EN" "http://www.w3.org/Graphics/SVG/1.1/DTD/svg11.dtd"><svg t="1545124134803" class="icon" style="" viewBox="0 0 1024 1024" version="1.1" xmlns="http://www.w3.org/2000/svg" p-id="1295" xmlns:xlink="http://www.w3.org/1999/xlink" width="200" height="200"><defs><style type="text/css"></style></defs><path d="M851.3 371.1c-8.4-4.6-17.3-7.7-26.4-9.2-3.4-78.3-35.5-151.4-91.2-207.1-59-59-137.5-91.5-221-91.5s-162 32.5-221 91.5c-55.7 55.7-87.8 128.8-91.2 207.1-9.1 1.5-18 4.6-26.5 9.3-67.3 37.1-109.2 108-109.2 184.8 0 76.9 41.8 147.8 109.2 184.9 12.6 6.9 26.2 10.4 39.9 10.4 14.4 0 28.7-3.8 41.7-11.5 25-14.7 39.9-40.8 39.9-69.8V442c0-29-14.9-55.1-39.8-69.9-5.2-3.1-10.7-5.5-16.2-7.4 0.5-13.3 2-26.4 4.4-39.3 17.3-52.2 50-99 93.5-133.3 24.5-19.3 51.7-34.4 81-44.8 30.3-10.7 62.1-16.2 94.6-16.2 32.5 0 64.3 5.4 94.6 16.2 29.3 10.4 56.5 25.4 81 44.8 43.5 34.4 76.1 81.1 93.5 133.3 2.4 12.9 3.8 26 4.4 39.2-5.6 1.8-11.1 4.3-16.3 7.4-24.9 14.7-39.8 40.8-39.8 69.9v208.5h-0.1V670c0 28.1 14 53.5 37.6 68.4-33 67-92.4 117.9-163.6 140.3-5.6-9.1-14.9-17.1-27.4-23.4-17.4-8.7-40-13.4-63.8-13.4-23.8 0-46.4 4.8-63.8 13.4-21.7 10.8-33.6 26.8-33.6 44.9s11.9 34.1 33.6 44.9c17.4 8.7 40 13.4 63.8 13.4 23.8 0 46.4-4.8 63.8-13.4 13.9-6.9 23.8-16 29.1-26.4 87.4-24.4 160.4-86 199.1-167.8 2.3 0.2 4.5 0.3 6.8 0.3 13.6 0 27.3-3.5 39.9-10.4C919.2 703.5 961 632.7 961 555.9c-0.5-76.7-42.4-147.6-109.7-184.8zM559 910.4c-11.9 5.9-28.8 9.3-46.4 9.3-17.6 0-34.5-3.4-46.4-9.3-9.1-4.5-12-9-12-10.1s3-5.6 12-10.1c11.9-5.9 28.8-9.3 46.4-9.3 17.6 0 34.5 3.4 46.4 9.3 8.8 4.4 11.8 8.7 12 10 0 0.2 0 0.3-0.1 0.5-0.4 1.4-3.6 5.5-11.9 9.7zM103.8 556c0-62.7 34.1-120.5 89-150.9 5.7-3.2 11.9-4.9 18.1-5.4v312.5c-6.2-0.4-12.3-2.2-18.1-5.4-54.9-30.2-89-88-89-150.8z m152.6-114v228c0 15.3-7.6 28.5-20.7 36.3-1.7 1-3.5 1.9-5.4 2.7V403c1.8 0.8 3.7 1.7 5.4 2.7 13.2 7.7 20.7 21 20.7 36.3z m357.4-313c-32.4-11.5-66.4-17.3-101.1-17.3-34.7 0-68.7 5.8-101.1 17.3-31.3 11.1-60.4 27.2-86.6 47.8-0.8 0.6-1.5 1.2-2.2 1.8C374 129.2 441.3 102 512.7 102s138.7 27.2 189.9 76.6c-0.7-0.6-1.5-1.2-2.2-1.8-26.2-20.6-55.3-36.7-86.6-47.8z m155.1 313c0-15.3 7.5-28.6 20.7-36.3 1.8-1 3.6-1.9 5.4-2.7v306c-1.9-0.8-3.7-1.7-5.5-2.7-12.3-7.3-19.7-19.3-20.6-33.3V442z m63.5 264.9c-5.7 3.1-11.8 4.9-18 5.4V399.8c6.2 0.4 12.3 2.2 18 5.4 54.9 30.4 89.1 88.2 89.1 150.9 0 62.5-34.1 120.3-89.1 150.8z" fill="#ffffff" p-id="1296"></path></svg>