<?xml version="1.0" standalone="no"?><!DOCTYPE svg PUBLIC "-//W3C//DTD SVG 1.1//EN" "http://www.w3.org/Graphics/SVG/1.1/DTD/svg11.dtd"><svg t="1545124138828" class="icon" style="" viewBox="0 0 1024 1024" version="1.1" xmlns="http://www.w3.org/2000/svg" p-id="1425" xmlns:xlink="http://www.w3.org/1999/xlink" width="200" height="200"><defs><style type="text/css"></style></defs><path d="M887 430.2c3.4-3.5 1.4-9.4-3.4-10.1l-250.2-38.2c-2-0.3-3.7-1.6-4.5-3.4l-112.3-239c-2.2-4.6-8.7-4.6-10.9 0l-112.3 239c-0.9 1.8-2.5 3.1-4.5 3.4l-250.2 38.2c-4.8 0.7-6.8 6.6-3.4 10.1l181.4 185.7a6.2 6.2 0 0 1 1.6 5.2l-42.9 262.7c-0.8 4.9 4.4 8.6 8.8 6.2l224-123.7c1.8-1 4-1 5.8 0L738 890c4.4 2.4 9.6-1.3 8.8-6.2L704 621c-0.3-1.9 0.3-3.8 1.6-5.2L887 430.2z" fill="#ff6b84" p-id="1426"></path></svg>